<?xml version="1.0" encoding="UTF-8"?>
<svg viewBox="200 0 200 400" width="100%" height="100%" version="1.1"
     baseProfile="full"
     xmlns="http://www.w3.org/2000/svg"
     xmlns:xlink="http://www.w3.org/1999/xlink"
     xmlns:ev="http://www.w3.org/2001/xml-events">
<defs>
	<style type="text/css" id="current-color-scheme">
	</style>
        <g id="vencidos" transform="scale(.33)">
            <g>
	
		<linearGradient id="P1_1_" gradientUnits="userSpaceOnUse" x1="23.7158" y1="-152.4307" x2="23.7158" y2="37.3438" gradientTransform="matrix(1.2524 0 0 -1.2524 98.7981 56.0994)">
		<stop offset="0.0056" style="stop-color:#ED0000"/>
		<stop offset="0.5449" style="stop-color:#8D0000"/>
		<stop offset="1" style="stop-color:#BD0000"/>
	</linearGradient>
	<path id="P1" fill="url(#P1_1_)" d="M2.933,128.167c0,69.237,56.33,125.567,125.568,125.567   c69.234,0,125.564-56.33,125.564-125.567S197.735,2.6,128.501,2.6C59.263,2.6,2.933,58.93,2.933,128.167z"/>
	
		<linearGradient id="P2_1_" gradientUnits="userSpaceOnUse" x1="23.7148" y1="-152.4141" x2="23.7148" y2="37.3656" gradientTransform="matrix(1.2524 0 0 -1.2524 98.7981 56.0994)">
		<stop offset="0.0056" style="stop-color:#FF4242"/>
		<stop offset="0.573" style="stop-color:#FF9494"/>
		<stop offset="1" style="stop-color:#FFDCDC"/>
	</linearGradient>
	<path id="P2" fill="url(#P2_1_)" d="M10.486,128.167c0,65.074,52.941,118.014,118.015,118.014   c65.072,0,118.01-52.939,118.01-118.014c0-65.073-52.938-118.014-118.01-118.014C63.427,10.153,10.486,63.094,10.486,128.167z"/>
	
		<linearGradient id="P3_1_" gradientUnits="userSpaceOnUse" x1="23.7163" y1="-148.5874" x2="23.7163" y2="33.5034" gradientTransform="matrix(1.2524 0 0 -1.2524 98.7981 56.0994)">
		<stop offset="0" style="stop-color:#FFFFFF"/>
		<stop offset="0.5" style="stop-color:#FF0000"/>
		<stop offset="1" style="stop-color:#FFC9C9"/>
	</linearGradient>
	<path id="P3" fill="url(#P3_1_)" d="M14.472,128.167c0,62.88,51.156,114.023,114.029,114.023   c62.878,0,114.026-51.144,114.026-114.023c0-62.873-51.148-114.027-114.026-114.027C65.628,14.14,14.472,65.294,14.472,128.167z"/>
	<path id="P4" opacity="0.8" fill="#FFFFFF" enable-background="new    " d="M128.501,28.385   c-57.264,0-103.857,46.583-103.857,103.854c0,57.263,46.593,103.845,103.857,103.845c57.266,0,103.854-46.582,103.854-103.845   C232.354,74.968,185.767,28.385,128.501,28.385z"/>
	<path id="P5" fill="#8D0000" d="M24.644,128.167c0,57.268,46.593,103.845,103.857,103.845c57.266,0,103.854-46.577,103.854-103.845   c0-57.264-46.588-103.853-103.854-103.853C71.237,24.314,24.644,70.903,24.644,128.167z"/>
	
		<radialGradient id="P6_1_" cx="-13.7617" cy="-108.6973" r="57.022" gradientTransform="matrix(1.7767 0 0 -1.7767 152.9529 -64.9587)" gradientUnits="userSpaceOnUse">
		<stop offset="0.6011" style="stop-color:#FFFFFF"/>
		<stop offset="0.8764" style="stop-color:#EAEAF0"/>
		<stop offset="0.9142" style="stop-color:#E6E6ED"/>
		<stop offset="0.95" style="stop-color:#DBDBE5"/>
		<stop offset="0.9849" style="stop-color:#C8C8D7"/>
		<stop offset="1" style="stop-color:#BDBDCF"/>
	</radialGradient>
	<path id="P6" fill="url(#P6_1_)" d="M27.188,128.167c0,55.861,45.447,101.308,101.313,101.308   c55.862,0,101.313-45.446,101.313-101.308c0-55.862-45.451-101.311-101.313-101.311C72.636,26.856,27.188,72.305,27.188,128.167z"/>
	<path id="P7" fill="#771111" d="M35.571,124.854c-1.127,0-2.042,0.914-2.042,2.043v2.537c0,1.128,0.914,2.042,2.042,2.042h17.802   c1.127,0,2.042-0.914,2.042-2.042v-2.537c0-1.129-0.915-2.043-2.042-2.043H35.571z"/>
	<rect id="RE1" x="35.571" y="126.897" fill="#A00000" width="17.802" height="2.537"/>
	<path id="P8" fill="#771111" d="M203.072,124.854c-1.128,0-2.041,0.914-2.041,2.043v2.537c0,1.128,0.913,2.042,2.041,2.042h17.81   c1.126,0,2.041-0.914,2.041-2.042v-2.537c0-1.129-0.915-2.043-2.041-2.043H203.072z"/>
	<rect id="RE2" x="203.072" y="126.897" fill="#A00000" width="17.81" height="2.537"/>
	<path id="P9" fill="#771111" d="M127.229,200.699c-1.128,0-2.042,0.914-2.042,2.041v17.803c0,1.127,0.914,2.041,2.042,2.041h2.543   c1.129,0,2.041-0.914,2.041-2.041V202.74c0-1.127-0.912-2.041-2.041-2.041H127.229z"/>
	<rect id="RE3" x="127.229" y="202.74" fill="#A00000" width="2.543" height="17.803"/>
	<path id="P10" fill="#771111" d="M127.229,33.196c-1.128,0-2.042,0.914-2.042,2.041V53.04c0,1.127,0.914,2.041,2.042,2.041h2.543   c1.129,0,2.041-0.914,2.041-2.041V35.237c0-1.127-0.912-2.041-2.041-2.041H127.229L127.229,33.196z"/>
	<rect id="RE4" x="127.229" y="35.237" fill="#A00000" width="2.543" height="17.803"/>
	<g id="G4" transform="matrix(0.983242,-0.182303,0.182303,0.983242,-10.45843,57.70537)">
		<path fill="#E0E0E0" d="M116.233,101.013L71.432,23.411c-2.026-3.507-0.824-7.994,2.683-10.02l0,0    c3.509-2.026,7.996-0.824,10.021,2.685l0,0l44.803,77.602c2.025,3.509,0.823,7.994-2.684,10.019l0,0    c-1.575,0.909-3.345,1.168-5.001,0.86l0,0C119.216,104.18,117.351,102.947,116.233,101.013L116.233,101.013z"/>
		<path fill="#BFBFBF" d="M115.25,97.347L115.249,7.74c0.001-4.051,3.283-7.336,7.336-7.335l0,0    c4.052-0.001,7.334,3.284,7.336,7.334l0,0l0,89.608c-0.002,4.05-3.284,7.334-7.336,7.334l0,0c-0.46,0.001-0.909-0.041-1.344-0.122    l0,0C117.833,103.927,115.25,100.936,115.25,97.347L115.25,97.347z"/>
		<path fill="#808080" d="M118.918,103.697c-3.508-2.025-4.711-6.51-2.685-10.018l0,0l44.803-77.603    c2.025-3.508,6.51-4.711,10.019-2.685l0,0c3.509,2.026,4.71,6.511,2.685,10.02l0,0l-44.801,77.602    c-1.597,2.766-4.722,4.098-7.691,3.547l0,0C120.449,104.412,119.661,104.127,118.918,103.697L118.918,103.697z"/>
		<path d="M118.92,103.697L59.714,69.514c-3.509-2.024-4.711-6.51-2.684-10.02l0,0c2.025-3.509,6.511-4.711,10.02-2.686l0,0    l55.538,32.066l73.933-42.684c3.505-2.026,7.993-0.824,10.018,2.684l0,0c2.024,3.507,0.821,7.994-2.683,10.02l0,0l-77.601,44.802    c-1.537,0.888-3.312,1.174-5.005,0.86l0,0C120.442,104.407,119.653,104.12,118.92,103.697L118.92,103.697z"/>
	</g>
</g>
<g id="layer1">
	<path id="path1650" fill="#F57900" stroke="#914900" stroke-width="0.9821" stroke-linecap="round" stroke-linejoin="round" d="   M251.588,195.403c0,31.088-25.2,56.29-56.287,56.29c-31.09,0-56.293-25.202-56.293-56.29l0,0c0-31.087,25.203-56.29,56.293-56.29   C226.388,139.113,251.588,164.316,251.588,195.403L251.588,195.403z"/>
	<path id="path3392" fill="none" stroke="#FCAF3E" stroke-width="0.9821" stroke-linecap="round" stroke-linejoin="round" d="   M250.144,195.157c0,30.085-24.383,54.468-54.468,54.468c-30.084,0-54.469-24.383-54.469-54.468l0,0   c0-30.083,24.385-54.47,54.469-54.47C225.761,140.688,250.144,165.074,250.144,195.157L250.144,195.157z"/>
	<path id="rect1872" fill="#FFFFFF" d="M187.628,165.538c-0.347,0-0.634,0.473-0.634,1.04l2.881,39.102   c0,0.563,0.291,1.036,0.634,1.036c0,0,2.279,0.032,4.155,0c0.617-0.01,0.806,0.055,1.365,0c1.878,0.032,4.158,0,4.158,0   c0.343,0,0.634-0.473,0.634-1.036l2.884-39.102c0-0.567-0.29-0.96-0.637-0.96h-6.988c-0.022-0.006-0.022-0.08-0.051-0.08H187.628z"/>
	<path id="path2062" fill="#FFFFFF" d="M201.704,219.19c0,3.443-2.791,6.236-6.234,6.236c-3.448,0-6.239-2.793-6.239-6.236   c0-3.445,2.791-6.239,6.239-6.239C198.913,212.951,201.704,215.745,201.704,219.19z"/>
	<path id="path3068" fill="#FFFEFF" fill-opacity="0.2139" d="M247.766,192.893c0,29.327-16.387-11.659-50.561,1.049   c-34.447,12.804-55.686,28.278-55.686-1.049c0-29.323,23.797-53.121,53.122-53.121S247.766,163.569,247.766,192.893z"/>
</g>
        </g>
        <g id="prioridad" transform="scale(.21)">
            <ellipse fill="#C33C2E" cx="198.5" cy="232.365" rx="198.5" ry="198.635"/>
            <path fill="#BC2B2A" d="M397,232.795c0-109.702-88.871-198.634-198.501-198.634c-6.102,0-12.137,0.291-18.099,0.831L62.132,298.933  l154.774,131.64C317.904,421.277,397,336.285,397,232.795z"/>
            <path fill="#5D5E5E" d="M377.08,205.901c-19.797-14.055-38.947-27.651-58.377-41.443c14.756-19.667,29.207-38.931,44.164-58.864  c-24.732-1.124-48.467-2.201-72.609-3.299c1.891-24.703,3.744-48.917,5.656-73.875c-21.375,12.32-42.221,24.336-63.309,36.491  C221.24,43.288,210.064,22.019,198.491,0c-11.601,22.225-22.74,43.558-34.095,65.312c-21.153-12.186-41.936-24.158-63.319-36.477  c2.062,25.032,4.042,49.083,6.052,73.472c-24.114,0.954-47.877,1.893-72.603,2.871c14.919,20.217,29.232,39.612,43.758,59.295  c-19.49,13.836-38.654,27.44-58.364,41.433c23.109,8.835,45.514,17.4,68.108,26.04c-8.726,22.428-17.201,44.21-25.896,66.56  c24.017-5.091,47.102-9.982,70.567-14.956c4.928,23.444,9.718,46.23,14.68,69.838c17.438-17.194,34.254-33.775,51.802-51.081  c16.949,16.999,33.457,33.557,50.27,50.422c4.83-23.034,9.59-45.736,14.42-68.787c23.697,4.857,47.068,9.649,70.992,14.557  c-8.785-22.577-17.287-44.426-25.906-66.574C331.822,223.188,354.109,214.674,377.08,205.901z"/>
            <path fill="#4A4849" d="M326.531,224.942c16.816-6.424,33.494-12.793,50.549-19.308c-19.795-14.053-38.945-27.647-58.371-41.438  c14.756-19.667,29.209-38.931,44.164-58.864c-24.732-1.124-48.465-2.2-72.607-3.298c1.891-24.703,3.744-48.917,5.656-73.875  c-21.377,12.32-42.223,24.336-63.309,36.491c-9.676-18.407-19.217-36.56-28.977-55.135l-35.884,169.102l27.76,20.337l-22.39,52.144  l83.639,66.753c1.004-4.788,6.107-29.362,7.117-34.175c23.697,4.857,47.066,9.647,70.994,14.556  c-8.787-22.577-17.289-44.427-25.908-66.574c5.891-2.249,11.738-4.484,17.572-6.712  C326.535,224.945,326.533,224.943,326.531,224.942z"/>
            <path fill="#E5E5E5" d="M231.842,174.778c0,2.286-1.854,4.138-4.137,4.138h-58.412c-2.284,0-4.136-1.853-4.136-4.138L159.412,4.459  c0-2.287,1.852-4.139,4.136-4.139h69.901c2.285,0,4.137,1.852,4.137,4.139L231.842,174.778z"/>
            <ellipse fill="#E5E5E5" cx="198.5" cy="228.81" rx="33.775" ry="33.798"/>
        </g>
<g id="porcentaje">
            <circle cx="256" cy="256" r="224" fill="crimson"/>
            <path d="M256,0C114.625,0,0,114.625,0,256s114.625,256,256,256s256-114.625,256-256S397.375,0,256,0z M256,480   C132.477,480,32,379.516,32,256S132.477,32,256,32c123.531,0,224,100.484,224,224S379.531,480,256,480z M225.984,175.008   c0-27.07-21.953-48.992-48.992-48.992S128,147.938,128,175.008S149.953,224,176.992,224S225.984,202.047,225.984,175.008z    M160,175.008c0-9.375,7.617-16.992,16.992-16.992s16.992,7.617,16.992,16.992S186.367,192,176.992,192S160,184.383,160,175.008z    M335,286.016c-27.062,0-48.984,21.953-48.984,48.984c0,27.047,21.922,49,48.984,49c27.078,0,49-21.953,49-49   C384,307.969,362.047,286.016,335,286.016z M335,352c-9.375,0-16.984-7.625-16.984-17s7.609-16.984,16.984-16.984   s17,7.609,17,16.984S344.375,352,335,352z M363.328,148.672c-6.234-6.242-16.391-6.242-22.625,0l-192,192   c-6.242,6.234-6.242,16.391,0,22.625C151.805,366.438,155.906,368,160,368s8.195-1.562,11.328-4.672l192-192   C369.562,165.055,369.562,154.945,363.328,148.672z"/>
        </g>
        <clipPath id="torta">
            <path d="M256,0 A 256,256 -40 1 1 0,256 L 256,256"></path>
        </clipPath>
        <clipPath id="pedazo">
            <path d="M256,0 A 256,256 -40 0 0 0,256 L 256,256"></path>
        </clipPath>
        <g id="porcentaje-partido" transform="scale(.16)">
    <use xlink:href="#porcentaje" clip-path="url(#torta)" transform="translate(20 20)"></use>
    <use xlink:href="#porcentaje" clip-path="url(#pedazo)"></use>
        </g>
        <path id="trayecto-rotacion" d="M-100,0a100,100 0 1,0 200,0a100,100 0 1,0 -200,0"/>
    </defs>
<!--    <circle cx="0" cy="0" r="170" stroke="black" stroke-width="4" fill="rgba(30,50,120,.3)" transform="translate(200 200)"/>-->
    <g id="rotador" transform="translate(135 150)">
        <use xlink:href="#vencidos">
            <animateMotion begin="0" dur="3" repeatCount="indefinite">
               <mpath xlink:href="#trayecto-rotacion"/>
            </animateMotion>
        </use>
        <use xlink:href="#prioridad">
            <animateMotion begin="1" dur="3" repeatCount="indefinite">
               <mpath xlink:href="#trayecto-rotacion"/>
            </animateMotion>
        </use>
        <use  xlink:href="#porcentaje-partido">
            <animateMotion begin="2" dur="3" repeatCount="indefinite">
               <mpath xlink:href="#trayecto-rotacion"/>
            </animateMotion>
        </use>
<!--
-->
    </g>
<!--
    <g id="rotador">
        <use xlink:href="#vencidos" transform="translate(160 65)"/>
        <use xlink:href="#prioridad" transform="translate(88 214)"/>
        <use xlink:href="#porcentaje-partido" transform="translate(240 210)"/>
        <animateMotion dur="6s" repeatCount="indefinite">
           <mpath xlink:href="#trayecto-rotacion"/>
        </animateMotion>
    </g>
-->
</svg>
